<?xml version="1.0" encoding="UTF-8" standalone="no"?>
<svg
   width="500"
   height="500"
   viewBox="0 0 132.29166 132.29167"
   version="1.1"
   id="svg965"
   inkscape:version="1.2 (dc2aeda, 2022-05-15)"
   sodipodi:docname="fortguard.svg"
   inkscape:export-filename="/Users/ishiniavindya/Desktop/test555.png"
   inkscape:export-xdpi="96"
   inkscape:export-ydpi="96"
   xmlns:inkscape="http://www.inkscape.org/namespaces/inkscape"
   xmlns:sodipodi="http://sodipodi.sourceforge.net/DTD/sodipodi-0.dtd"
   xmlns="http://www.w3.org/2000/svg"
   xmlns:svg="http://www.w3.org/2000/svg"
   xmlns:rdf="http://www.w3.org/1999/02/22-rdf-syntax-ns#"
   xmlns:cc="http://creativecommons.org/ns#"
   xmlns:dc="http://purl.org/dc/elements/1.1/">
  <defs
     id="defs959" />
  <sodipodi:namedview
     id="base"
     pagecolor="#ffffff"
     bordercolor="#666666"
     borderopacity="1.0"
     inkscape:pageopacity="0.0"
     inkscape:pageshadow="2"
     inkscape:zoom="0.88600553"
     inkscape:cx="234.19718"
     inkscape:cy="278.7793"
     inkscape:document-units="px"
     inkscape:current-layer="layer1"
     inkscape:document-rotation="0"
     showgrid="false"
     inkscape:window-width="1440"
     inkscape:window-height="900"
     inkscape:window-x="0"
     inkscape:window-y="0"
     inkscape:window-maximized="0"
     units="px"
     inkscape:showpageshadow="2"
     inkscape:pagecheckerboard="0"
     inkscape:deskcolor="#d1d1d1" />
  <metadata
     id="metadata962">
    <rdf:RDF>
      <cc:Work
         rdf:about="">
        <dc:format>image/svg+xml</dc:format>
        <dc:type
           rdf:resource="http://purl.org/dc/dcmitype/StillImage" />
      </cc:Work>
    </rdf:RDF>
  </metadata>
  <g
     inkscape:label="Layer 1"
     inkscape:groupmode="layer"
     id="layer1">
    <g
       id="g2921"
       inkscape:export-filename="fortguard256.png"
       inkscape:export-xdpi="49.152"
       inkscape:export-ydpi="49.152">
      <rect
         style="fill:#e3d7f4;fill-opacity:1;stroke-width:0.79375;stroke-linecap:round;paint-order:fill markers stroke"
         id="rect502"
         width="132.29167"
         height="132.29167"
         x="-3.376465e-06"
         y="-3.376465e-06" />
      <g
         id="g1422"
         transform="matrix(0.59178567,0,0,0.59178567,27.00125,27.001637)"
         style="stroke-width:1.6898">
        <g
           id="rect1001"
           transform="rotate(-0.58211807)"
           style="stroke-width:1.6898">
          <path
             style="color:#000000;fill:#fbf7ff;fill-rule:evenodd;stroke-width:12.0961"
             d="m 65.470392,5.0260782 c 21.570063,0 38.935128,17.3650688 38.935128,38.9351308 v 45.706459 c 0,21.570062 -17.365065,38.935132 -38.935128,38.935132 -21.570062,0 -38.935131,-17.36507 -38.935131,-38.935132 V 43.961209 c 0,-21.570062 17.365069,-38.9351308 38.935131,-38.9351308 z"
             id="path1408" />
          <path
             style="color:#000000;fill:#000000;fill-rule:evenodd;stroke-width:1.6898"
             d="m 65.470703,1.4472656 c -23.490968,0 -42.513672,19.0227034 -42.513672,42.5136714 v 45.707032 c 0,23.490971 19.022704,42.513671 42.513672,42.513671 23.490968,0 42.513677,-19.0227 42.513677,-42.513671 V 43.960937 c 0,-23.490968 -19.022709,-42.5136714 -42.513677,-42.5136714 z m 0,7.1582032 c 19.649114,0 35.355467,15.7063542 35.355467,35.3554682 v 45.707032 c 0,19.649111 -15.706353,35.355471 -35.355467,35.355471 -19.649114,0 -35.355469,-15.70636 -35.355469,-35.355471 V 43.960937 c 0,-19.649114 15.706355,-35.3554682 35.355469,-35.3554682 z"
             id="path1410" />
        </g>
        <g
           id="path1003"
           style="stroke-width:1.6898">
          <path
             style="color:#000000;fill:#836096;fill-rule:evenodd;stroke-width:12.0961"
             d="m 105.07895,65.75026 0.23219,22.852048 C 105.53028,110.17126 88.342531,127.71185 66.773582,127.931 45.204632,128.15014 27.664036,110.96239 27.44489,89.393446 L 27.212709,66.541399 Z"
             id="path1402" />
          <path
             style="color:#000000;fill:#000000;fill-rule:evenodd;stroke-width:1.6898"
             d="m 108.62109,62.134766 -3.57812,0.03711 -81.445314,0.826172 0.267578,26.43164 c 0.238662,23.489752 19.455557,42.318732 42.945313,42.080082 23.489754,-0.23867 42.318733,-19.45361 42.080083,-42.943363 z m -7.08398,7.232421 0.19531,19.271485 C 101.93205,108.28678 86.384429,124.15193 66.736328,124.35156 47.088227,124.55119 31.223067,109.00552 31.023437,89.357422 L 30.828125,70.083984 Z"
             id="path1404" />
        </g>
        <g
           id="g1011"
           transform="matrix(1.0727824,0,0,1.0727824,-4.7282157,-11.786447)"
           style="stroke-width:1.6898">
          <path
             style="color:#000000;fill:#000000;stroke-width:1.6898;stroke-linecap:round;stroke-linejoin:round;paint-order:stroke fill markers"
             d="m 52.835937,33.302734 c -2.418324,0 -4.651445,0.579296 -6.492187,1.738282 -1.840742,1.158986 -3.455078,3.151092 -3.455078,5.671875 a 3.0993299,3.0993299 0 0 0 3.099609,3.099609 3.0993299,3.0993299 0 0 0 3.09961,-3.099609 c 0,0.139511 -0.07913,-0.02425 0.558593,-0.425782 0.637728,-0.401532 1.825759,-0.785156 3.189453,-0.785156 1.363695,0 2.553679,0.383624 3.191407,0.785156 0.637727,0.401533 0.558594,0.565292 0.558593,0.425782 a 3.0993299,3.0993299 0 0 0 3.097657,3.099609 3.0993299,3.0993299 0 0 0 3.099609,-3.099609 c 0,-2.520782 -1.612383,-4.512889 -3.453125,-5.671875 -1.840742,-1.158987 -4.075816,-1.738282 -6.494141,-1.738282 z"
             id="path1005" />
          <path
             style="color:#000000;fill:#000000;stroke-width:1.6898;stroke-linecap:round;stroke-linejoin:round;paint-order:stroke fill markers"
             d="m 79.294922,33.302734 c -2.418324,0 -4.653398,0.579296 -6.494141,1.738282 -1.840742,1.158986 -3.453125,3.151092 -3.453125,5.671875 a 3.0993299,3.0993299 0 0 0 3.09961,3.099609 3.0993299,3.0993299 0 0 0 3.099609,-3.099609 c 0,0.139511 -0.08109,-0.02425 0.556641,-0.425782 0.637727,-0.401532 1.827712,-0.785156 3.191406,-0.785156 1.363695,0 2.553679,0.383624 3.191406,0.785156 0.637728,0.401533 0.556641,0.565292 0.556641,0.425782 a 3.0993299,3.0993299 0 0 0 3.099609,3.099609 3.0993299,3.0993299 0 0 0 3.099609,-3.099609 c 10e-7,-2.520782 -1.612382,-4.512889 -3.453125,-5.671875 -1.840742,-1.158987 -4.075816,-1.738282 -6.49414,-1.738282 z"
             id="path1007" />
          <path
             style="color:#000000;fill:#000000;stroke-width:1.6898;stroke-linecap:round;stroke-linejoin:round;paint-order:stroke fill markers"
             d="m 59.003906,52.396484 a 3.0993299,3.0993299 0 0 0 -3.099609,3.09961 c 0,2.520782 1.614336,4.512889 3.455078,5.671875 1.840742,1.158986 4.073863,1.740234 6.492187,1.740234 2.418325,0 4.653399,-0.581248 6.494141,-1.740234 1.840742,-1.158986 3.453125,-3.151093 3.453125,-5.671875 a 3.0993299,3.0993299 0 0 0 -3.099609,-3.09961 3.0993299,3.0993299 0 0 0 -3.097657,3.09961 c 0,-0.139511 0.07913,0.02425 -0.558593,0.425781 -0.637728,0.401532 -1.827712,0.787109 -3.191407,0.787109 -1.363694,0 -2.551725,-0.385577 -3.189453,-0.787109 -0.637727,-0.401532 -0.558593,-0.565292 -0.558593,-0.425781 a 3.0993299,3.0993299 0 0 0 -3.09961,-3.09961 z"
             id="path1009" />
        </g>
      </g>
    </g>
  </g>
</svg>
