<svg xmlns="http://www.w3.org/2000/svg" width="200" height="200" viewBox="0 0 52.917 52.917"
     xmlns:v="https://vecta.io/nano">
    <g fill-rule="evenodd">
        <path d="M25.208 1.656l1.982-.02c8.364-.083 15.167 6.585 15.255 14.949l.203 19.428c.087 8.364-6.575 15.164-14.939 15.247l-1.982.02c-8.364.083-15.167-6.585-15.255-14.949l-.203-19.428c-.087-8.364 6.575-15.164 14.939-15.247z"
              fill="#fdffff"/>
        <path d="M25.193.268c-9.108.09-16.407 7.54-16.312 16.648l.203 19.428c.095 9.109 7.548 16.413 16.657 16.323l1.982-.02c9.108-.09 16.407-7.54 16.312-16.648l-.203-19.428C43.737 7.463 36.284.159 27.175.249zm.029 2.776l1.982-.02a13.66 13.66 0 0 1 13.852 13.575l.203 19.428a13.64 13.64 0 0 1-13.566 13.845l-1.982.02A13.66 13.66 0 0 1 11.86 36.318l-.203-19.428A13.64 13.64 0 0 1 25.222 3.044z"/>
        <path d="M42.549 26.299l.096 9.177c.091 8.662-7.012 15.706-15.924 15.793S10.559 44.455 10.47 35.794l-.096-9.177z"
              fill="#5a8387"/>
        <path d="M43.922 24.897l-1.387.014-33.564.331.111 10.566c.098 9.428 8.016 16.944 17.652 16.849s17.397-7.768 17.298-17.196zm-2.747 2.803l.081 7.79c.083 7.895-6.361 14.311-14.55 14.391h0c-8.189.081-14.768-6.207-14.849-14.102h0l-.082-7.788z"/>
    </g>
    <use href="#B" paint-order="stroke fill markers"/>
    <use href="#B" x="11.729" paint-order="stroke fill markers"/>
    <path d="M23.326 17.781a1.29 1.29 0 0 0-1.289 1.289c0 1.082.707 1.925 1.506 2.413s1.768.733 2.82.733 2.021-.245 2.82-.733 1.505-1.331 1.505-2.413a1.29 1.29 0 0 0-1.289-1.289 1.29 1.29 0 0 0-1.289 1.289c0-.056.028.03-.273.214s-.848.354-1.473.354-1.173-.171-1.474-.354-.273-.27-.273-.214a1.29 1.29 0 0 0-1.289-1.289z"
          paint-order="stroke fill markers"/>
    <defs>
        <path id="B"
              d="M20.592 9.554c-1.051 0-2.021.245-2.82.734s-1.505 1.331-1.505 2.413a1.29 1.29 0 0 0 1.289 1.289 1.29 1.29 0 0 0 1.289-1.289c0 .056-.028-.03.273-.214s.848-.354 1.473-.354 1.173.171 1.474.354.273.27.273.214a1.29 1.29 0 0 0 1.289 1.289 1.29 1.29 0 0 0 1.289-1.289c0-1.082-.707-1.925-1.506-2.413s-1.768-.734-2.82-.734z"/>
    </defs>
</svg>